<svg width="32" height="32" viewBox="0 0 32 32" fill="none" xmlns="http://www.w3.org/2000/svg">
<path fill-rule="evenodd" clip-rule="evenodd" d="M6.16047 8.50758C6.2199 7.26355 6.96068 6.28009 7.84428 5.65023L9.45553 4.50168C10.6245 3.6684 12.2476 3.94021 13.0813 5.10888L14.9753 7.76383C15.8093 8.9328 15.5377 10.5565 14.3687 11.3904L13.019 12.3533C13.0161 12.3553 13.0138 12.3573 13.0119 12.359C13.2787 13.1863 13.9127 14.8297 15.1674 16.5884C16.422 18.3472 17.7696 19.4815 18.465 20.003C18.4673 20.0018 18.4699 20.0003 18.4728 19.9982L19.8225 19.0353C20.9915 18.2014 22.6151 18.473 23.4491 19.642L25.3934 22.3675C26.2275 23.5367 25.9555 25.1609 24.786 25.9946L23.232 27.1023C22.3093 27.76 21.086 28.1346 19.8574 27.7488C17.7297 27.0808 13.8668 25.2099 10.1938 20.0612C6.50279 14.8873 6.05636 10.6871 6.16047 8.50758ZM8.85041 7.06167C8.26044 7.48222 7.91875 8.02675 7.89183 8.59029C7.80524 10.403 8.15238 14.215 11.6048 19.0546C15.0416 23.872 18.5791 25.5308 20.3766 26.0951C20.9482 26.2745 21.6121 26.1284 22.2258 25.6909L23.7798 24.5831C24.1697 24.3052 24.2604 23.7639 23.9823 23.3741L22.038 20.6486C21.76 20.259 21.2188 20.1684 20.8291 20.4464L19.4794 21.4093C18.8939 21.8269 18.0735 21.8742 17.4435 21.4035C16.6551 20.8143 15.1533 19.5533 13.7563 17.5951C12.3593 15.6369 11.6557 13.8064 11.3552 12.8691C11.1151 12.1203 11.4269 11.3599 12.0123 10.9422L13.362 9.97933C13.7517 9.70135 13.8422 9.16013 13.5643 8.77047L11.6703 6.11552C11.3923 5.72596 10.8513 5.63536 10.4617 5.91312L8.85041 7.06167Z" fill="#E4322B"/>
</svg>
