<svg width="32" height="32" viewBox="0 0 32 32" fill="none" xmlns="http://www.w3.org/2000/svg">
<path fill-rule="evenodd" clip-rule="evenodd" d="M26.3516 11.2223L18.8011 5.62417C17.059 4.33261 14.6718 4.34892 12.9476 5.66416L5.91628 11.0397C4.76603 11.7407 4 13.0059 4 14.4539V23.3367C4 25.5481 5.78667 27.3332 8 27.3332H24C26.2133 27.3332 28 25.5481 28 23.3367V14.4539C28 13.124 27.349 11.9483 26.3516 11.2223ZM17.7681 7.01488C16.6466 6.18332 15.1095 6.19382 13.9995 7.04062C13.372 7.51924 12.72 8.01618 12.0595 8.5196C10.2452 9.90249 8.36654 11.3343 6.75617 12.57L13.9811 18.009C15.0974 18.8494 16.6359 18.8494 17.7522 18.009L25.1178 12.4641L17.7681 7.01488ZM26.1805 13.8325L20.4703 18.1312L23.8977 20.7077C24.2802 20.9952 24.357 21.5381 24.0692 21.9202C23.7814 22.3023 23.2381 22.379 22.8556 22.0915L19.0298 19.2156L18.7953 19.3921C17.0614 20.6974 14.6719 20.6974 12.938 19.3921L12.7036 19.2156L8.87783 22.0915C8.49536 22.379 7.95201 22.3023 7.66424 21.9202C7.37646 21.5381 7.45323 20.9952 7.83571 20.7077L11.2631 18.1312L5.77828 14.0022C5.7488 14.1481 5.73333 14.2992 5.73333 14.4539V23.3367C5.73333 24.5889 6.74667 25.6014 8 25.6014H24C25.2533 25.6014 26.2667 24.5889 26.2667 23.3367V14.4539C26.2667 14.2383 26.2366 14.0299 26.1805 13.8325Z" fill="#E4322B"/>
</svg>
