<svg width="32" height="32" viewBox="0 0 32 32" fill="none" xmlns="http://www.w3.org/2000/svg">
<path fill-rule="evenodd" clip-rule="evenodd" d="M24.7972 7.112C24.7936 7.11235 24.7845 7.11367 24.7694 7.12028L7.20615 14.7955C7.18649 14.8041 7.1784 14.8113 7.17631 14.8133C7.174 14.8154 7.17187 14.819 7.17187 14.819C7.16911 14.8243 7.16348 14.8406 7.16673 14.8656C7.16998 14.8906 7.17959 14.9049 7.18361 14.9093C7.18361 14.9093 7.18658 14.9122 7.18937 14.9137C7.19188 14.915 7.20153 14.9198 7.22273 14.923L14.2112 15.9815C15.163 16.1256 15.9101 16.8776 16.0534 17.8357L17.1049 24.87C17.1081 24.8913 17.1129 24.901 17.1142 24.9035C17.1157 24.9063 17.1186 24.9093 17.1186 24.9093C17.1229 24.9134 17.1372 24.9231 17.162 24.9263C17.1868 24.9296 17.203 24.9239 17.2083 24.9211C17.2083 24.9211 17.2118 24.919 17.214 24.9167C17.2159 24.9146 17.223 24.9064 17.2315 24.8866L24.8568 7.20826C24.8634 7.19304 24.8647 7.18398 24.8651 7.18035C24.8654 7.17647 24.8652 7.1734 24.8645 7.17019C24.8629 7.16281 24.8572 7.14877 24.8429 7.13433C24.8285 7.1199 24.8146 7.11416 24.8072 7.11255C24.8041 7.11186 24.801 7.11162 24.7972 7.112ZM24.0814 5.52514C25.5745 4.87263 27.0899 6.39788 26.4416 7.90081L18.8163 25.5792C18.0986 27.2431 15.6646 26.9225 15.3964 25.1287L14.3449 18.0944C14.3145 17.8912 14.1561 17.7317 13.9542 17.7011L6.96567 16.6427C5.18354 16.3728 4.865 13.9228 6.51812 13.2004L24.0814 5.52514Z" fill="#E4322B"/>
</svg>
