<svg width="32" height="32" viewBox="0 0 32 32" fill="none" xmlns="http://www.w3.org/2000/svg">
<path fill-rule="evenodd" clip-rule="evenodd" d="M12.2645 25.331C11.9384 24.7156 11.7427 23.9475 11.7427 23.0226C11.7427 20.6206 12.9292 19.192 14.0369 17.8583L14.1928 17.6625C14.4563 17.3451 14.5897 17.1619 14.7998 16.8062C14.9861 16.4907 15.1404 16.1662 15.2625 15.8303C15.365 15.5482 15.6062 15.3393 15.8999 15.2779C16.1937 15.2166 16.4983 15.3116 16.7051 15.5291C18.0852 16.9804 18.9318 18.0976 19.4518 19.0523C20.114 20.2682 20.2575 21.2414 20.2575 22.4015C20.2575 23.6008 19.7572 24.7848 18.9569 25.6987C21.7003 24.5888 23.6001 21.9632 23.6001 18.816C23.6001 15.46 21.436 13.7273 19.3536 12.1355L19.2929 12.0891C18.7738 11.6925 18.1853 11.2428 17.7374 10.7861C16.6072 9.6337 15.837 8.32346 15.56 6.68331C9.54461 12.2676 8.40008 15.7188 8.40008 18.816C8.40008 21.6558 9.94685 24.0709 12.2645 25.331ZM16.0001 28C21.1547 28 25.3334 24 25.3334 18.816C25.3334 14.5247 22.4522 12.3223 20.4063 10.7584C19.8383 10.3242 19.3347 9.93928 18.975 9.5725C17.8445 8.41979 17.2158 7.16142 17.1809 5.42714C17.1629 4.53151 16.0742 3.88806 15.4047 4.48324C8.34 10.7635 6.66675 14.8502 6.66675 18.816C6.66675 24 10.8454 28 16.0001 28ZM15.4931 18.8178C15.7982 18.4501 16.0708 18.0659 16.3071 17.6625C17.1117 18.5843 17.6116 19.2975 17.9295 19.8813C18.4179 20.7781 18.5242 21.447 18.5242 22.4015C18.5242 23.1625 18.1826 23.9914 17.5747 24.6434C16.9585 25.3044 16.272 25.5753 15.7729 25.5753C15.009 25.5753 14.4728 25.3202 14.1342 24.9819C13.805 24.653 13.476 24.0588 13.476 23.0226C13.476 21.2783 14.2788 20.2803 15.4124 18.915L15.4931 18.8178Z" fill="#E4322B"/>
</svg>
