<svg width="136" height="36" viewBox="0 0 136 36" fill="none" xmlns="http://www.w3.org/2000/svg">
<g clip-path="url(#clip0_101_282)">
<path d="M133 0H42C40.3431 0 39 1.34315 39 3V33C39 34.6569 40.3431 36 42 36H133C134.657 36 136 34.6569 136 33V3C136 1.34315 134.657 0 133 0Z" fill="#E4322B"/>
<path d="M59.1 8.76753H65.95C68.1 8.76753 70.0042 9.17113 71.6625 9.97832C73.3292 10.7855 74.6334 11.931 75.575 13.4147C76.525 14.8984 77 16.6549 77 18.6845C77 20.6064 76.525 22.2708 75.575 23.6776C74.6334 25.0844 73.3292 26.1722 71.6625 26.9409C70.0042 27.7097 68.1 28.0941 65.95 28.0941H59.1C56.9333 28.0941 55.0125 27.7136 53.3375 26.9525C51.6708 26.1914 50.3625 25.1036 49.4125 23.6891C48.4708 22.2746 48 20.591 48 18.6384C48 16.6089 48.4792 14.856 49.4375 13.3801C50.4042 11.9041 51.7208 10.7663 53.3875 9.96678C55.0625 9.16728 56.9667 8.76753 59.1 8.76753ZM59.1 14.0258C58.2333 14.0258 57.4334 14.1757 56.7 14.4755C55.975 14.7754 55.3917 15.2635 54.95 15.94C54.5167 16.6165 54.3 17.516 54.3 18.6384C54.3 19.6685 54.525 20.4911 54.975 21.106C55.4333 21.7211 56.025 22.1631 56.75 22.4322C57.4833 22.7012 58.2666 22.8358 59.1 22.8358H66C66.85 22.8358 67.625 22.6974 68.325 22.4207C69.0334 22.1362 69.5958 21.6903 70.0125 21.0831C70.4375 20.468 70.65 19.6685 70.65 18.6845C70.65 17.5621 70.4375 16.6589 70.0125 15.9746C69.5958 15.2904 69.0334 14.7946 68.325 14.4871C67.625 14.1795 66.85 14.0258 66 14.0258H59.1ZM65.75 6V31H59.25V6H65.75Z" fill="white"/>
<path d="M80 31V6H90.7543C92.6035 6 94.2215 6.36621 95.6083 7.09863C96.9952 7.83106 98.0738 8.86051 98.8443 10.187C99.6148 11.5135 100 13.0638 100 14.8379C100 16.6282 99.6026 18.1785 98.8078 19.4888C98.0211 20.799 96.9141 21.8081 95.4867 22.5161C94.0674 23.2241 92.4088 23.5781 90.511 23.5781H84.0876V18.3047H89.1485C89.9433 18.3047 90.6205 18.1663 91.1801 17.8896C91.7478 17.6048 92.1817 17.202 92.4818 16.6811C92.7899 16.1603 92.9441 15.5459 92.9441 14.8379C92.9441 14.1218 92.7899 13.5114 92.4818 13.0068C92.1817 12.4941 91.7478 12.1035 91.1801 11.835C90.6205 11.5583 89.9433 11.4199 89.1485 11.4199H86.7641V31H80Z" fill="white"/>
<path d="M126 15.4582H119.244C119.196 14.9036 119.068 14.4007 118.86 13.9491C118.661 13.4976 118.381 13.1095 118.022 12.7847C117.67 12.452 117.243 12.1985 116.74 12.0242C116.237 11.842 115.666 11.7509 115.027 11.7509C113.909 11.7509 112.963 12.0203 112.188 12.5589C111.421 13.0976 110.838 13.8699 110.439 14.8759C110.048 15.882 109.852 17.09 109.852 18.5C109.852 19.9892 110.052 21.2369 110.451 22.2428C110.858 23.2409 111.445 23.9935 112.212 24.5005C112.979 24.9995 113.901 25.2491 114.979 25.2491C115.594 25.2491 116.145 25.1738 116.632 25.0233C117.119 24.8648 117.543 24.6391 117.902 24.346C118.261 24.0529 118.553 23.7004 118.777 23.2885C119.008 22.8686 119.164 22.3974 119.244 21.8745L126 21.9221C125.92 22.9518 125.629 24.0014 125.125 25.0709C124.622 26.1323 123.908 27.1145 122.981 28.0175C122.063 28.9127 120.925 29.6336 119.567 30.1801C118.21 30.7267 116.632 31 114.835 31C112.583 31 110.563 30.5208 108.774 29.5623C106.993 28.6037 105.584 27.1938 104.545 25.3323C103.515 23.4707 103 21.1932 103 18.5C103 15.7908 103.527 13.5095 104.581 11.6559C105.635 9.79435 107.057 8.38831 108.846 7.43774C110.635 6.47924 112.631 6 114.835 6C116.385 6 117.81 6.20992 119.112 6.62975C120.414 7.04959 121.556 7.6635 122.538 8.47148C123.52 9.27154 124.311 10.2578 124.91 11.4301C125.509 12.6025 125.872 13.9452 126 15.4582Z" fill="white"/>
<path d="M33 28.7574V3C33 1.34315 31.6569 0 30 0H4.24264C1.56993 0 0.231422 3.23142 2.12132 5.12132L27.8787 30.8787C29.7686 32.7686 33 31.4301 33 28.7574Z" fill="white"/>
<path d="M3.62648 36H30C31.6569 36 33 34.6569 33 33V2.96349C33 0.195946 29.5717 -1.09555 27.7457 0.984089L1.37216 31.0206C-0.33007 32.9592 1.04657 36 3.62648 36Z" fill="#E4322B"/>
</g>
<defs>
<clipPath id="clip0_101_282">
<rect width="136" height="36" fill="white"/>
</clipPath>
</defs>
</svg>
