<svg width="90" height="24" viewBox="0 0 90 24" fill="none" xmlns="http://www.w3.org/2000/svg">
<g clip-path="url(#clip0_28_716)">
<path d="M88.6667 0H28C26.8954 0 26 0.89543 26 2V22C26 23.1046 26.8954 24 28 24H88.6667C89.7712 24 90.6667 23.1046 90.6667 22V2C90.6667 0.895431 89.7712 0 88.6667 0Z" fill="#E4322B"/>
<path d="M39.4 5.84502H43.9666C45.4 5.84502 46.6695 6.11409 47.775 6.65221C48.8861 7.19034 49.7556 7.95398 50.3833 8.94311C51.0166 9.93226 51.3333 11.1033 51.3333 12.4563C51.3333 13.7376 51.0166 14.8472 50.3833 15.7851C49.7556 16.7229 48.8861 17.4481 47.775 17.9606C46.6695 18.4731 45.4 18.7294 43.9666 18.7294H39.4C37.9556 18.7294 36.675 18.4757 35.5583 17.9683C34.4472 17.461 33.575 16.7358 32.9417 15.7927C32.3139 14.8497 32 13.7274 32 12.4256C32 11.0726 32.3194 9.90403 32.9583 8.92005C33.6028 7.93604 34.4806 7.17753 35.5917 6.64452C36.7083 6.11152 37.9778 5.84502 39.4 5.84502ZM39.4 9.35055C38.8222 9.35055 38.2889 9.45047 37.8 9.65034C37.3167 9.85027 36.9278 10.1757 36.6333 10.6267C36.3444 11.0777 36.2 11.6774 36.2 12.4256C36.2 13.1124 36.35 13.6608 36.65 14.0707C36.9556 14.4807 37.35 14.7754 37.8333 14.9548C38.3222 15.1341 38.8444 15.2239 39.4 15.2239H44C44.5667 15.2239 45.0833 15.1316 45.55 14.9471C46.0222 14.7575 46.3972 14.4602 46.675 14.0554C46.9584 13.6454 47.1 13.1124 47.1 12.4563C47.1 11.7081 46.9584 11.1059 46.675 10.6497C46.3972 10.1936 46.0222 9.86304 45.55 9.65806C45.0833 9.45302 44.5667 9.35055 44 9.35055H39.4ZM43.8333 4V20.6667H39.5V4H43.8333Z" fill="white"/>
<path d="M53.3333 20.6667V4H60.5028C61.7356 4 62.8143 4.24414 63.7388 4.73242C64.6634 5.22071 65.3825 5.90701 65.8961 6.79134C66.4098 7.67567 66.6666 8.7092 66.6666 9.89193C66.6666 11.0855 66.4016 12.119 65.8718 12.9925C65.3473 13.866 64.6093 14.5387 63.6577 15.0108C62.7115 15.4827 61.6058 15.7187 60.3406 15.7187H56.0583V12.2032H59.4322C59.9621 12.2032 60.4136 12.1109 60.7866 11.9264C61.1651 11.7366 61.4544 11.468 61.6544 11.1208C61.8599 10.7735 61.9626 10.3639 61.9626 9.89193C61.9626 9.41452 61.8599 9.00759 61.6544 8.67122C61.4544 8.32943 61.1651 8.06901 60.7866 7.88997C60.4136 7.70551 59.9621 7.61328 59.4322 7.61328H57.8426V20.6667H53.3333Z" fill="white"/>
<path d="M84.0001 10.3054H79.4959C79.464 9.93575 79.3788 9.60047 79.2404 9.29943C79.1073 8.99841 78.9209 8.73965 78.6813 8.52313C78.4471 8.30133 78.1622 8.13234 77.8268 8.01616C77.4914 7.8947 77.1107 7.83396 76.6848 7.83396C75.9394 7.83396 75.3085 8.01352 74.7921 8.37262C74.281 8.73173 73.8923 9.24662 73.6261 9.91727C73.3653 10.588 73.2348 11.3933 73.2348 12.3333C73.2348 13.3261 73.3679 14.1579 73.6341 14.8286C73.9056 15.494 74.297 15.9957 74.8081 16.3337C75.3192 16.6663 75.9341 16.8327 76.6529 16.8327C77.0628 16.8327 77.4302 16.7825 77.7549 16.6822C78.0797 16.5765 78.3619 16.4261 78.6015 16.2306C78.841 16.0353 79.0354 15.8003 79.1844 15.5257C79.3388 15.2458 79.4426 14.9316 79.4959 14.583L84.0001 14.6147C83.9468 15.3012 83.7525 16.0009 83.4171 16.7139C83.0817 17.4215 82.6052 18.0763 81.9875 18.6784C81.3753 19.2751 80.6166 19.7557 79.7115 20.1201C78.8065 20.4845 77.7549 20.6667 76.557 20.6667C75.0556 20.6667 73.7087 20.3472 72.5161 19.7082C71.3288 19.0692 70.3891 18.1292 69.697 16.8882C69.0102 15.6471 68.6667 14.1288 68.6667 12.3333C68.6667 10.5272 69.0182 9.00634 69.7209 7.7706C70.4237 6.52957 71.3714 5.5922 72.564 4.95849C73.7566 4.3195 75.0876 4 76.557 4C77.5899 4 78.5402 4.13995 79.4081 4.41983C80.2759 4.69972 81.0372 5.109 81.6921 5.64765C82.347 6.18103 82.874 6.83851 83.2733 7.62009C83.6726 8.40167 83.9149 9.29679 84.0001 10.3054Z" fill="white"/>
<path d="M22 19.1716V2C22 0.89543 21.1046 0 20 0H2.82843C1.04662 0 0.154285 2.15428 1.41422 3.41421L18.5858 20.5858C19.8457 21.8457 22 20.9534 22 19.1716Z" fill="black"/>
<path d="M2.41765 24H20C21.1046 24 22 23.1046 22 22V1.97566C22 0.130632 19.7145 -0.730373 18.4971 0.656055L0.914774 20.6804C-0.220049 21.9728 0.697708 24 2.41765 24Z" fill="#E4322B"/>
</g>
<defs>
<clipPath id="clip0_28_716">
<rect width="90" height="24" fill="white"/>
</clipPath>
</defs>
</svg>
