<svg width="24" height="24" viewBox="0 0 24 24" fill="none" xmlns="http://www.w3.org/2000/svg">
<path fill-rule="evenodd" clip-rule="evenodd" d="M13.7702 3.30868C13.5743 3.27529 13.3743 3.33824 13.2329 3.47781L4.76098 11.8379C4.38981 12.2042 4.57938 12.8365 5.09084 12.9381L8.93232 13.7015C9.9792 13.9096 10.6643 14.9206 10.4695 15.9701L9.72691 19.9699C9.66404 20.3086 9.89052 20.6332 10.2301 20.6911C10.426 20.7245 10.626 20.6615 10.7674 20.522L19.2393 12.1618C19.6105 11.7956 19.4209 11.1633 18.9095 11.0617L15.068 10.2982C14.0211 10.0902 13.336 9.07913 13.5308 8.0297L14.2734 4.02985C14.3363 3.69118 14.1098 3.36657 13.7702 3.30868ZM12.3198 2.55249C12.7591 2.11897 13.3803 1.92345 13.9887 2.02717C15.0434 2.20697 15.7468 3.2152 15.5515 4.26714L14.809 8.26698C14.7441 8.61679 14.9724 8.95381 15.3214 9.02316L19.1629 9.78659C20.6973 10.0915 21.266 11.9883 20.1524 13.0872L11.6805 21.4473C11.2412 21.8808 10.62 22.0763 10.0116 21.9726C8.95692 21.7928 8.25346 20.7846 8.44875 19.7326L9.1913 15.7328C9.25624 15.383 9.02788 15.046 8.67892 14.9766L4.83744 14.2132C3.30304 13.9082 2.73435 12.0114 3.84787 10.9126L12.3198 2.55249Z" fill="#E4322B"/>
</svg>
