<svg width="24" height="24" viewBox="0 0 24 24" fill="none" xmlns="http://www.w3.org/2000/svg">
<path fill-rule="evenodd" clip-rule="evenodd" d="M4.62017 6.38056C4.66474 5.44754 5.22033 4.70995 5.88303 4.23755L7.09147 3.37614C7.9682 2.75118 9.18552 2.95504 9.81081 3.83154L11.2313 5.82275C11.8568 6.69948 11.6531 7.91723 10.7763 8.54268L9.76405 9.26482C9.76187 9.26638 9.76014 9.26785 9.75877 9.26916C9.95888 9.88961 10.4343 11.1222 11.3753 12.4412C12.3163 13.7603 13.327 14.611 13.8486 15.0021C13.8503 15.0012 13.8522 15.0001 13.8544 14.9985L14.8667 14.2764C15.7434 13.6509 16.9612 13.8546 17.5866 14.7314L19.0449 16.7755C19.6705 17.6524 19.4665 18.8705 18.5893 19.4958L17.4238 20.3266C16.7318 20.8199 15.8143 21.1008 14.8929 20.8115C13.2971 20.3105 10.3999 18.9073 7.64515 15.0458C4.87691 11.1654 4.54208 8.0152 4.62017 6.38056ZM6.63762 5.29613C6.19515 5.61154 5.93888 6.01994 5.91869 6.44259C5.85374 7.80216 6.1141 10.6611 8.70345 14.2908C11.281 17.9039 13.9342 19.1479 15.2823 19.5712C15.711 19.7058 16.2089 19.5962 16.6692 19.268L17.8347 18.4372C18.1271 18.2288 18.1951 17.8228 17.9866 17.5305L16.5283 15.4863C16.3198 15.1941 15.9139 15.1262 15.6217 15.3347L14.6094 16.0568C14.1703 16.3701 13.5549 16.4055 13.0825 16.0525C12.4911 15.6106 11.3648 14.6649 10.317 13.1962C9.2693 11.7275 8.74159 10.3547 8.51623 9.65174C8.33618 9.09008 8.56996 8.51978 9.00907 8.20652L10.0214 7.48437C10.3136 7.27589 10.3815 6.86997 10.173 6.57773L8.75251 4.58652C8.54408 4.29435 8.1383 4.2264 7.84606 4.43472L6.63762 5.29613Z" fill="black"/>
</svg>
