<svg width="14" height="14" viewBox="0 0 14 14" fill="none" xmlns="http://www.w3.org/2000/svg">
<path fill-rule="evenodd" clip-rule="evenodd" d="M13.2308 7.0003C13.2308 3.55914 10.4412 0.769531 7.00006 0.769531C3.5589 0.769531 0.769287 3.55914 0.769287 7.0003C0.769287 10.4415 3.5589 13.2311 7.00006 13.2311C10.4412 13.2311 13.2308 10.4415 13.2308 7.0003ZM5.48646 10.0424C5.57646 10.1393 5.69415 10.1877 5.81876 10.1877C5.92953 10.1877 6.03338 10.1531 6.12338 10.07L8.9203 7.35367C9.13492 7.15982 9.13492 6.82752 8.9203 6.63367L6.10953 3.92928C5.92261 3.76312 5.63876 3.77697 5.47261 3.95697C5.30646 4.14389 5.31338 4.42774 5.5003 4.59389L7.97437 6.99861L5.51415 9.40543C5.33415 9.57159 5.3203 9.85543 5.48646 10.0424Z" fill="#878787"/>
</svg>
