<svg width="14" height="14" viewBox="0 0 14 14" fill="none" xmlns="http://www.w3.org/2000/svg">
<path fill-rule="evenodd" clip-rule="evenodd" d="M0.769174 7.0003C0.769174 3.55914 3.55878 0.769531 6.99994 0.769531C10.4411 0.769531 13.2307 3.55914 13.2307 7.0003C13.2307 10.4415 10.4411 13.2311 6.99994 13.2311C3.55878 13.2311 0.769174 10.4415 0.769174 7.0003ZM8.51354 10.0424C8.42354 10.1393 8.30585 10.1877 8.18124 10.1877C8.07047 10.1877 7.96662 10.1531 7.87662 10.07L5.0797 7.35367C4.86508 7.15982 4.86508 6.82752 5.0797 6.63367L7.89047 3.92928C8.07739 3.76312 8.36124 3.77697 8.52739 3.95697C8.69354 4.14389 8.68662 4.42774 8.4997 4.59389L6.02563 6.99861L8.48585 9.40543C8.66585 9.57159 8.6797 9.85543 8.51354 10.0424Z" fill="#878787"/>
</svg>
