<svg width="32" height="32" fill="none" xmlns="http://www.w3.org/2000/svg"><path fill-rule="evenodd" clip-rule="evenodd" d="M24.797 7.112a.093.093 0 0 0-.028.008L7.206 14.796a.102.102 0 0 0-.03.017l-.004.006a.084.084 0 0 0-.005.047.076.076 0 0 0 .017.043l.005.005a.106.106 0 0 0 .034.009l6.988 1.059a2.2 2.2 0 0 1 1.842 1.854l1.052 7.034a.106.106 0 0 0 .01.034.032.032 0 0 0 .004.005.081.081 0 0 0 .043.017.082.082 0 0 0 .046-.005l.006-.004a.107.107 0 0 0 .018-.03l7.625-17.679a.096.096 0 0 0 .008-.028v-.01a.078.078 0 0 0-.022-.036.077.077 0 0 0-.036-.021.03.03 0 0 0-.01-.001Zm-.716-1.587c1.494-.652 3.009.873 2.36 2.376l-7.625 17.678c-.717 1.664-3.151 1.343-3.42-.45l-1.051-7.035a.467.467 0 0 0-.39-.393l-6.99-1.058c-1.781-.27-2.1-2.72-.447-3.443l17.563-7.675Z" fill="#E4322B"/></svg>