<svg width="32" height="32" fill="none" xmlns="http://www.w3.org/2000/svg"><path fill-rule="evenodd" clip-rule="evenodd" d="M6.16 8.508c.06-1.244.8-2.228 1.684-2.858l1.612-1.148a2.6 2.6 0 0 1 3.625.607l1.894 2.655a2.6 2.6 0 0 1-.606 3.626l-1.35.963a.07.07 0 0 0-.007.006c.267.827.9 2.47 2.155 4.23a15.849 15.849 0 0 0 3.298 3.414.062.062 0 0 0 .008-.005l1.35-.963a2.6 2.6 0 0 1 3.626.607l1.944 2.726a2.6 2.6 0 0 1-.607 3.627l-1.554 1.107c-.923.658-2.146 1.033-3.375.647-2.127-.668-5.99-2.54-9.663-7.688-3.691-5.174-4.138-9.374-4.034-11.553Zm2.69-1.446c-.59.42-.931.965-.958 1.528-.087 1.813.26 5.625 3.713 10.465 3.437 4.817 6.974 6.476 8.772 7.04.571.18 1.235.033 1.849-.404l1.554-1.108c.39-.278.48-.82.202-1.209l-1.944-2.725a.867.867 0 0 0-1.209-.203l-1.35.963c-.585.418-1.405.465-2.035-.005a17.57 17.57 0 0 1-3.688-3.809 17.567 17.567 0 0 1-2.4-4.726 1.72 1.72 0 0 1 .656-1.927l1.35-.963a.866.866 0 0 0 .202-1.209L11.67 6.116a.867.867 0 0 0-1.208-.203L8.85 7.062Z" fill="#E4322B"/></svg>