<svg width="32" height="32" fill="none" xmlns="http://www.w3.org/2000/svg"><path fill-rule="evenodd" clip-rule="evenodd" d="m26.352 11.222-7.55-5.598a4.87 4.87 0 0 0-5.854.04L5.916 11.04A3.989 3.989 0 0 0 4 14.454v8.883a3.993 3.993 0 0 0 4 3.996h16c2.213 0 4-1.785 4-3.996v-8.883a3.99 3.99 0 0 0-1.648-3.232Zm-8.584-4.207A3.135 3.135 0 0 0 14 7.04l-1.94 1.48a2065.321 2065.321 0 0 0-5.303 4.05l7.225 5.439c1.116.84 2.655.84 3.771 0l7.366-5.545-7.35-5.45Zm8.412 6.817-5.71 4.3 3.428 2.576a.865.865 0 1 1-1.042 1.384l-3.826-2.876-.235.176a4.87 4.87 0 0 1-5.857 0l-.234-.176-3.826 2.875a.867.867 0 0 1-1.042-1.383l3.427-2.577-5.485-4.129a2.28 2.28 0 0 0-.045.452v8.883A2.264 2.264 0 0 0 8 25.6h16a2.264 2.264 0 0 0 2.267-2.264v-8.883c0-.216-.03-.424-.087-.622Z" fill="#E4322B"/></svg>