<svg width="32" height="32" fill="none" xmlns="http://www.w3.org/2000/svg"><path fill-rule="evenodd" clip-rule="evenodd" d="M12.264 25.331c-.326-.615-.521-1.383-.521-2.308 0-2.402 1.186-3.831 2.294-5.165l.156-.195a5.6 5.6 0 0 0 .607-.857c.186-.315.34-.64.462-.976a.867.867 0 0 1 1.443-.3c1.38 1.45 2.227 2.568 2.747 3.522.662 1.216.805 2.19.805 3.35 0 1.199-.5 2.383-1.3 3.297 2.743-1.11 4.643-3.736 4.643-6.883 0-3.356-2.164-5.089-4.246-6.68l-.061-.047c-.52-.396-1.108-.846-1.556-1.303-1.13-1.152-1.9-2.463-2.177-4.103C9.545 12.268 8.4 15.72 8.4 18.816a7.356 7.356 0 0 0 3.864 6.515ZM16 28c5.155 0 9.333-4 9.333-9.184 0-4.291-2.88-6.494-4.927-8.058-.568-.434-1.071-.819-1.431-1.185-1.13-1.153-1.76-2.412-1.794-4.146-.018-.895-1.107-1.539-1.776-.944-7.065 6.28-8.738 10.367-8.738 14.333C6.667 24 10.845 28 16 28Zm-.507-9.182c.305-.368.578-.752.814-1.155.805.921 1.305 1.634 1.623 2.218.488.897.594 1.566.594 2.52 0 .762-.341 1.59-.95 2.242-.616.661-1.302.932-1.801.932-.764 0-1.3-.255-1.639-.593-.329-.329-.658-.923-.658-1.96 0-1.744.803-2.742 1.936-4.107l.081-.097Z" fill="#E4322B"/></svg>