<svg width="90" height="24" fill="none" xmlns="http://www.w3.org/2000/svg"><g clip-path="url(#a)"><path d="M88.667 0H28a2 2 0 0 0-2 2v20a2 2 0 0 0 2 2h60.667a2 2 0 0 0 2-2V2a2 2 0 0 0-2-2Z" fill="#E4322B"/><path d="M39.4 5.845h4.567c1.433 0 2.703.27 3.808.807 1.111.538 1.98 1.302 2.608 2.291.634.99.95 2.16.95 3.513 0 1.282-.316 2.391-.95 3.33-.627.937-1.497 1.662-2.608 2.175-1.105.512-2.375.768-3.808.768H39.4c-1.444 0-2.725-.253-3.842-.76-1.11-.508-1.983-1.233-2.616-2.176-.628-.943-.942-2.066-.942-3.367 0-1.353.32-2.522.958-3.506.645-.984 1.523-1.742 2.634-2.275 1.116-.533 2.386-.8 3.808-.8Zm0 3.506c-.578 0-1.111.1-1.6.3-.483.2-.872.525-1.167.976-.289.45-.433 1.05-.433 1.799 0 .686.15 1.235.45 1.645.306.41.7.704 1.183.884.49.18 1.011.269 1.567.269H44c.567 0 1.083-.092 1.55-.277.472-.19.847-.487 1.125-.892.283-.41.425-.943.425-1.599 0-.748-.142-1.35-.425-1.806a2.425 2.425 0 0 0-1.125-.992A3.812 3.812 0 0 0 44 9.351h-4.6ZM43.833 4v16.667H39.5V4h4.333Zm9.5 16.667V4h7.17c1.233 0 2.311.244 3.236.732a5.305 5.305 0 0 1 2.157 2.06c.514.884.77 1.917.77 3.1 0 1.194-.264 2.227-.794 3.1-.525.874-1.263 1.547-2.214 2.019-.947.472-2.052.708-3.317.708h-4.283v-3.516h3.374c.53 0 .982-.092 1.355-.277a2.02 2.02 0 0 0 .867-.805c.206-.348.309-.757.309-1.23 0-.476-.103-.883-.309-1.22a1.934 1.934 0 0 0-.867-.781c-.373-.184-.825-.277-1.355-.277h-1.59v13.054h-4.509ZM84 10.305h-4.504A3.01 3.01 0 0 0 79.24 9.3a2.272 2.272 0 0 0-.559-.776 2.335 2.335 0 0 0-.854-.507 3.34 3.34 0 0 0-1.142-.182c-.746 0-1.377.18-1.893.539-.511.359-.9.874-1.166 1.544-.26.671-.391 1.476-.391 2.416 0 .993.133 1.825.4 2.496.27.665.662 1.167 1.173 1.505.511.332 1.126.499 1.845.499.41 0 .777-.05 1.102-.15.325-.107.607-.257.847-.452a2.35 2.35 0 0 0 .582-.705c.155-.28.259-.594.312-.943l4.504.032c-.053.686-.248 1.386-.583 2.099a6.828 6.828 0 0 1-1.43 1.964c-.612.597-1.37 1.078-2.275 1.442-.906.364-1.957.547-3.155.547-1.501 0-2.848-.32-4.04-.959-1.188-.639-2.128-1.579-2.82-2.82-.687-1.24-1.03-2.76-1.03-4.555 0-1.806.351-3.327 1.054-4.562.703-1.241 1.65-2.179 2.843-2.813C73.757 4.32 75.088 4 76.557 4c1.033 0 1.983.14 2.851.42.868.28 1.63.689 2.284 1.228a6.072 6.072 0 0 1 1.581 1.972c.4.782.642 1.677.727 2.685Z" fill="#fff"/><path d="M22 19.172V2a2 2 0 0 0-2-2H2.828C1.047 0 .154 2.154 1.414 3.414l17.172 17.172c1.26 1.26 3.414.367 3.414-1.414Z" fill="#000"/><path d="M2.418 24H20a2 2 0 0 0 2-2V1.976C22 .13 19.715-.73 18.497.656L.915 20.68C-.22 21.973.698 24 2.418 24Z" fill="#E4322B"/></g><defs><clipPath id="a"><path fill="#fff" d="M0 0h90v24H0z"/></clipPath></defs></svg>