<svg width="136" height="36" fill="none" xmlns="http://www.w3.org/2000/svg"><g clip-path="url(#a)"><path d="M133 0H42a3 3 0 0 0-3 3v30a3 3 0 0 0 3 3h91a3 3 0 0 0 3-3V3a3 3 0 0 0-3-3Z" fill="#E4322B"/><path d="M59.1 8.768h6.85c2.15 0 4.054.403 5.712 1.21 1.667.808 2.971 1.953 3.913 3.437.95 1.483 1.425 3.24 1.425 5.27 0 1.921-.475 3.586-1.425 4.993-.942 1.406-2.246 2.494-3.913 3.263-1.658.769-3.562 1.153-5.712 1.153H59.1c-2.167 0-4.087-.38-5.763-1.142-1.666-.76-2.975-1.848-3.925-3.263C48.471 22.275 48 20.591 48 18.64c0-2.03.48-3.783 1.438-5.259.966-1.476 2.283-2.614 3.95-3.413 1.675-.8 3.579-1.2 5.712-1.2Zm0 5.258c-.867 0-1.667.15-2.4.45-.725.3-1.308.787-1.75 1.464-.433.676-.65 1.576-.65 2.698 0 1.03.225 1.853.675 2.468a3.828 3.828 0 0 0 1.775 1.326 6.77 6.77 0 0 0 2.35.404H66c.85 0 1.625-.139 2.325-.415a3.642 3.642 0 0 0 1.688-1.338c.424-.615.637-1.414.637-2.398 0-1.123-.213-2.026-.638-2.71a3.636 3.636 0 0 0-1.687-1.488c-.7-.307-1.475-.461-2.325-.461h-6.9ZM65.75 6v25h-6.5V6h6.5ZM80 31V6h10.754c1.85 0 3.468.366 4.854 1.099 1.387.732 2.466 1.762 3.236 3.088.77 1.327 1.156 2.877 1.156 4.65 0 1.791-.397 3.341-1.192 4.652-.787 1.31-1.894 2.32-3.321 3.027-1.42.708-3.078 1.062-4.976 1.062h-6.423v-5.273h5.06c.795 0 1.473-.139 2.032-.415a3.027 3.027 0 0 0 1.302-1.209c.308-.52.462-1.135.462-1.843 0-.716-.154-1.327-.462-1.831a2.903 2.903 0 0 0-1.302-1.172c-.56-.277-1.237-.415-2.032-.415h-2.384V31H80Zm46-15.542h-6.756a4.51 4.51 0 0 0-.384-1.509 3.403 3.403 0 0 0-.838-1.164 3.51 3.51 0 0 0-1.282-.76c-.503-.183-1.074-.274-1.713-.274-1.118 0-2.064.27-2.839.808-.767.539-1.35 1.31-1.749 2.317-.391 1.006-.587 2.214-.587 3.624 0 1.49.2 2.737.599 3.743.407.998.994 1.75 1.761 2.258.767.498 1.689.748 2.767.748.615 0 1.166-.075 1.653-.226a3.889 3.889 0 0 0 1.27-.677c.359-.293.651-.646.875-1.058.231-.42.387-.89.467-1.413l6.756.047c-.08 1.03-.371 2.08-.875 3.149-.503 1.061-1.217 2.043-2.144 2.946-.918.896-2.056 1.617-3.414 2.163-1.357.547-2.935.82-4.732.82-2.252 0-4.272-.48-6.061-1.438-1.781-.958-3.19-2.368-4.229-4.23-1.03-1.861-1.545-4.139-1.545-6.832 0-2.71.527-4.99 1.581-6.844 1.054-1.862 2.476-3.268 4.265-4.218C110.635 6.479 112.631 6 114.835 6c1.55 0 2.975.21 4.277.63 1.302.42 2.444 1.034 3.426 1.841a9.114 9.114 0 0 1 2.372 2.96c.599 1.171.962 2.514 1.09 4.027ZM33 28.757V3a3 3 0 0 0-3-3H4.243C1.57 0 .23 3.231 2.12 5.121L27.88 30.88c1.89 1.89 5.121.551 5.121-2.122Z" fill="#fff"/><path d="M3.626 36H30a3 3 0 0 0 3-3V2.963c0-2.767-3.428-4.059-5.254-1.979L1.372 31.021C-.33 32.959 1.047 36 3.626 36Z" fill="#E4322B"/></g><defs><clipPath id="a"><path fill="#fff" d="M0 0h136v36H0z"/></clipPath></defs></svg>