<?xml version="1.0" encoding="utf-8"?><svg viewBox="0 0 26 26" xmlns="http://www.w3.org/2000/svg" xmlns:xlink="http://www.w3.org/1999/xlink"><style>:root>svg{display:none}:root>svg:target{display:block}</style><svg fill="none" viewBox="-1 -1 26 26" id="svg-city" xmlns="http://www.w3.org/2000/svg"><path fill-rule="evenodd" clip-rule="evenodd" d="M7.85 10.1a4.15 4.15 0 118.3 0 4.15 4.15 0 01-8.3 0zM12 7.25a2.85 2.85 0 100 5.7 2.85 2.85 0 000-5.7z" fill="#878787"/><path fill-rule="evenodd" clip-rule="evenodd" d="M11.623 3.13c3.273-.198 6.749 1.71 7.266 5.937.036.298.058.575.061.824.02 1.346-.409 2.709-1.02 3.968-.615 1.263-1.434 2.461-2.243 3.49a30.499 30.499 0 01-2.23 2.522c-.333.338-.67.673-1.026.988a.651.651 0 01-.862-.001c.044-.05 0 0 0 0a21.933 21.933 0 01-1.025-.987 30.501 30.501 0 01-2.23-2.522c-.81-1.029-1.628-2.227-2.242-3.49-.613-1.26-1.04-2.622-1.022-3.968.06-4.253 3.302-6.563 6.573-6.76zM12 19.483a29.2 29.2 0 01-2.664-2.937c-.774-.985-1.535-2.103-2.095-3.256-.563-1.157-.906-2.312-.89-3.38.047-3.434 2.61-5.317 5.35-5.482 2.74-.166 5.481 1.393 5.897 4.797.033.267.05.495.052.684.015 1.07-.327 2.224-.89 3.381-.56 1.153-1.321 2.271-2.095 3.256A29.229 29.229 0 0112 19.483z" fill="#878787"/></svg><svg fill="none" viewBox="-1 -1 26 26" id="svg-email" xmlns="http://www.w3.org/2000/svg"><path fill-rule="evenodd" clip-rule="evenodd" d="M19.764 8.417L14.1 4.218a3.653 3.653 0 00-4.39.03L4.437 8.28A2.992 2.992 0 003 10.84v6.663A2.995 2.995 0 006 20.5h12c1.66 0 3-1.339 3-2.997V10.84c0-.998-.488-1.88-1.236-2.424zM13.326 5.26a2.352 2.352 0 00-2.826.02L9.045 6.39C7.684 7.427 6.275 8.5 5.067 9.428l5.419 4.079c.837.63 1.99.63 2.828 0l5.524-4.159-5.512-4.087zm6.31 5.113l-4.283 3.224 2.57 1.933a.65.65 0 11-.781 1.038l-2.87-2.157-.175.132a3.652 3.652 0 01-4.393 0l-.176-.132-2.87 2.157a.65.65 0 01-.781-1.038l2.57-1.933-4.113-3.096c-.022.11-.034.223-.034.338v6.663c0 .939.76 1.698 1.7 1.698h12c.94 0 1.7-.76 1.7-1.698V10.84c0-.162-.023-.318-.065-.466z" fill="#fff"/></svg><svg fill="none" viewBox="-1 -1 16 16" id="svg-next" xmlns="http://www.w3.org/2000/svg"><path fill-rule="evenodd" clip-rule="evenodd" d="M13.23 7A6.23 6.23 0 10.77 7a6.23 6.23 0 0012.46 0zm-7.744 3.042c.09.097.208.146.333.146.11 0 .214-.035.304-.118L8.92 7.354a.483.483 0 000-.72L6.11 3.929a.456.456 0 00-.637.028.45.45 0 00.027.637l2.474 2.405-2.46 2.406a.456.456 0 00-.028.637z" fill="#878787"/></svg><svg fill="none" viewBox="-1 -1 16 16" id="svg-prev" xmlns="http://www.w3.org/2000/svg"><path fill-rule="evenodd" clip-rule="evenodd" d="M.77 7a6.23 6.23 0 1112.46 0A6.23 6.23 0 01.77 7zm7.744 3.042a.446.446 0 01-.333.146.434.434 0 01-.304-.118L5.08 7.354a.483.483 0 010-.72l2.81-2.705a.456.456 0 01.637.028.45.45 0 01-.027.637L6.026 6.999l2.46 2.406c.18.167.194.45.028.637z" fill="#878787"/></svg><svg viewBox="-1 -1 26 26" id="svg-tel" xmlns="http://www.w3.org/2000/svg"><path fill-rule="evenodd" clip-rule="evenodd" d="M4.62 6.38c.045-.932.6-1.67 1.263-2.142l1.208-.862a1.95 1.95 0 012.72.456l1.42 1.99a1.95 1.95 0 01-.455 2.72l-1.012.723a.048.048 0 00-.005.004c.2.62.675 1.853 1.616 3.172a11.885 11.885 0 002.474 2.561.047.047 0 00.005-.004l1.013-.722a1.95 1.95 0 012.72.455l1.458 2.045a1.95 1.95 0 01-.456 2.72l-1.165.83c-.692.494-1.61.775-2.531.485-1.596-.5-4.493-1.904-7.248-5.765-2.768-3.88-3.103-7.03-3.025-8.665zm2.018-1.084c-.443.316-.7.724-.72 1.147-.064 1.36.196 4.218 2.785 7.848 2.578 3.613 5.231 4.857 6.58 5.28.428.135.926.025 1.386-.303l1.166-.83a.65.65 0 00.152-.907l-1.459-2.045a.65.65 0 00-.906-.151l-1.013.722a1.291 1.291 0 01-1.527-.005 13.176 13.176 0 01-2.765-2.856 13.177 13.177 0 01-1.8-3.544 1.291 1.291 0 01.492-1.445l1.012-.723a.65.65 0 00.152-.906l-1.42-1.991a.65.65 0 00-.907-.152l-1.208.861z"/></svg></svg>